<svg width="1920" height="325" viewBox="0 0 1920 325" fill="none" xmlns="http://www.w3.org/2000/svg">
<path d="M0 315C349.665 180.5 417.199 237 580.671 261C744.142 285 924.024 156.5 1049.63 140C1175.23 123.5 1430.91 283.927 1579.8 204.5C1705.4 137.5 1770.41 107.5 1920 169.5V0H0V315Z" fill="#FAF0CC"/>
<g filter="url(#filter0_f_0_1)">
<path d="M0 315C349.665 180.5 417.199 237 580.671 261C744.142 285 924.024 156.5 1049.63 140C1175.23 123.5 1430.91 283.927 1579.8 204.5C1705.4 137.5 1770.41 107.5 1920 169.5V0H0V315Z" stroke="#E8D7BF" stroke-width="10" stroke-dasharray="20 20"/>
</g>
<defs>
<filter id="filter0_f_0_1" x="-7" y="-7" width="1934" height="331.28" filterUnits="userSpaceOnUse" color-interpolation-filters="sRGB">
<feFlood flood-opacity="0" result="BackgroundImageFix"/>
<feBlend mode="normal" in="SourceGraphic" in2="BackgroundImageFix" result="shape"/>
<feGaussianBlur stdDeviation="1" result="effect1_foregroundBlur_0_1"/>
</filter>
</defs>
</svg>
