<svg width="1220" height="1080" viewBox="0 0 1220 1080" fill="none" xmlns="http://www.w3.org/2000/svg">
<g filter="url(#filter0_f_112_2)">
<path d="M7 0C283.437 169.582 248.665 336.688 264.892 447.473C281.119 558.258 339.652 797.158 818.346 880.711C1201.3 947.553 1243.34 1041.42 1216.48 1080" stroke="#E8D7BF" stroke-width="10" stroke-linecap="round"/>
<path d="M355.138 216.73L382.25 133.196L409.362 216.73H355.138Z" fill="#FFF8E1" stroke="#E8D7BF" stroke-width="10"/>
<rect x="-5" y="5" width="18.6827" height="19.3243" transform="matrix(-1 0 0 1 385.837 214.748)" fill="#FFF8E1" stroke="#E8D7BF" stroke-width="10"/>
<path d="M433.638 219.523L460.75 135.989L487.862 219.523H433.638Z" fill="#FFF8E1" stroke="#E8D7BF" stroke-width="10"/>
<rect x="-5" y="5" width="18.6827" height="19.3243" transform="matrix(-1 0 0 1 464.337 217.541)" fill="#FFF8E1" stroke="#E8D7BF" stroke-width="10"/>
<path d="M394.388 232.09L421.5 148.557L448.612 232.09H394.388Z" fill="#FFF8E1" stroke="#E8D7BF" stroke-width="10"/>
<rect x="-5" y="5" width="18.6827" height="19.3243" transform="matrix(-1 0 0 1 425.087 230.108)" fill="#FFF8E1" stroke="#E8D7BF" stroke-width="10"/>
<path d="M277.138 285.73L304.25 202.196L331.362 285.73H277.138Z" fill="#FFF8E1" stroke="#E8D7BF" stroke-width="10"/>
<rect x="-5" y="5" width="18.6827" height="19.3243" transform="matrix(-1 0 0 1 307.837 283.748)" fill="#FFF8E1" stroke="#E8D7BF" stroke-width="10"/>
<path d="M355.638 288.523L382.75 204.989L409.862 288.523H355.638Z" fill="#FFF8E1" stroke="#E8D7BF" stroke-width="10"/>
<rect x="-5" y="5" width="18.6827" height="19.3243" transform="matrix(-1 0 0 1 386.337 286.541)" fill="#FFF8E1" stroke="#E8D7BF" stroke-width="10"/>
<path d="M316.388 301.09L343.5 217.557L370.612 301.09H316.388Z" fill="#FFF8E1" stroke="#E8D7BF" stroke-width="10"/>
<rect x="-5" y="5" width="18.6827" height="19.3243" transform="matrix(-1 0 0 1 347.087 299.108)" fill="#FFF8E1" stroke="#E8D7BF" stroke-width="10"/>
<path d="M277.138 285.73L304.25 202.196L331.362 285.73H277.138Z" fill="#FFF8E1" stroke="#E8D7BF" stroke-width="10"/>
<rect x="-5" y="5" width="18.6827" height="19.3243" transform="matrix(-1 0 0 1 307.837 283.748)" fill="#FFF8E1" stroke="#E8D7BF" stroke-width="10"/>
<path d="M355.638 288.523L382.75 204.989L409.862 288.523H355.638Z" fill="#FFF8E1" stroke="#E8D7BF" stroke-width="10"/>
<rect x="-5" y="5" width="18.6827" height="19.3243" transform="matrix(-1 0 0 1 386.337 286.541)" fill="#FFF8E1" stroke="#E8D7BF" stroke-width="10"/>
<path d="M316.388 301.09L343.5 217.557L370.612 301.09H316.388Z" fill="#FFF8E1" stroke="#E8D7BF" stroke-width="10"/>
<rect x="-5" y="5" width="18.6827" height="19.3243" transform="matrix(-1 0 0 1 347.087 299.108)" fill="#FFF8E1" stroke="#E8D7BF" stroke-width="10"/>
<path d="M369.138 342.73L396.25 259.196L423.362 342.73H369.138Z" fill="#FFF8E1" stroke="#E8D7BF" stroke-width="10"/>
<rect x="-5" y="5" width="18.6827" height="19.3243" transform="matrix(-1 0 0 1 399.837 340.748)" fill="#FFF8E1" stroke="#E8D7BF" stroke-width="10"/>
<path d="M447.638 345.523L474.75 261.989L501.862 345.523H447.638Z" fill="#FFF8E1" stroke="#E8D7BF" stroke-width="10"/>
<rect x="-5" y="5" width="18.6827" height="19.3243" transform="matrix(-1 0 0 1 478.337 343.541)" fill="#FFF8E1" stroke="#E8D7BF" stroke-width="10"/>
<path d="M408.388 358.09L435.5 274.557L462.612 358.09H408.388Z" fill="#FFF8E1" stroke="#E8D7BF" stroke-width="10"/>
<rect x="-5" y="5" width="18.6827" height="19.3243" transform="matrix(-1 0 0 1 439.087 356.108)" fill="#FFF8E1" stroke="#E8D7BF" stroke-width="10"/>
<path d="M316 471.586C356 457.586 352.5 432.086 370 430.086C387.5 428.086 383.5 461.586 415.5 471.586" stroke="#E8D7BF" stroke-width="10" stroke-linecap="round"/>
<path d="M379.5 492.172C419.5 478.172 416 452.672 433.5 450.672C451 448.672 447 482.172 479 492.172" stroke="#E8D7BF" stroke-width="10" stroke-linecap="round"/>
<path d="M429.5 532.172C469.5 518.172 466 492.672 483.5 490.672C501 488.672 497 522.172 529 532.172" stroke="#E8D7BF" stroke-width="10" stroke-linecap="round"/>
<path d="M455.5 478.586C485.249 469.16 482.646 451.99 495.661 450.644C508.676 449.297 505.701 471.853 529.5 478.586" stroke="#E8D7BF" stroke-width="10" stroke-linecap="round"/>
<path d="M315 553C351.181 538.861 348.015 513.107 363.844 511.087C379.673 509.067 376.055 542.9 405 553" stroke="#E8D7BF" stroke-width="10" stroke-linecap="round"/>
<path d="M372 573C408.181 559.197 405.015 534.056 420.844 532.085C436.673 530.113 433.055 563.141 462 573" stroke="#E8D7BF" stroke-width="10" stroke-linecap="round"/>
<path d="M396 451C432.181 437.197 429.015 412.056 444.844 410.085C460.673 408.113 457.055 441.141 486 451" stroke="#E8D7BF" stroke-width="10" stroke-linecap="round"/>
<path d="M418 613C454.181 599.197 451.015 574.056 466.844 572.085C482.673 570.113 479.055 603.141 508 613" stroke="#E8D7BF" stroke-width="10" stroke-linecap="round"/>
<path d="M441 560C467.935 550.574 465.578 533.404 477.362 532.058C489.146 530.711 486.452 553.267 508 560" stroke="#E8D7BF" stroke-width="10" stroke-linecap="round"/>
</g>
<g filter="url(#filter1_f_112_2)">
<path d="M774.138 674.73L801.25 591.196L828.362 674.73H774.138Z" fill="#FFF8E1" stroke="#E8D7BF" stroke-width="10"/>
<rect x="-5" y="5" width="18.6827" height="19.3243" transform="matrix(-1 0 0 1 804.837 672.748)" fill="#FFF8E1" stroke="#E8D7BF" stroke-width="10"/>
<path d="M852.638 677.523L879.75 593.989L906.862 677.523H852.638Z" fill="#FFF8E1" stroke="#E8D7BF" stroke-width="10"/>
<rect x="-5" y="5" width="18.6827" height="19.3243" transform="matrix(-1 0 0 1 883.337 675.541)" fill="#FFF8E1" stroke="#E8D7BF" stroke-width="10"/>
<path d="M813.388 690.09L840.5 606.557L867.612 690.09H813.388Z" fill="#FFF8E1" stroke="#E8D7BF" stroke-width="10"/>
<rect x="-5" y="5" width="18.6827" height="19.3243" transform="matrix(-1 0 0 1 844.087 688.108)" fill="#FFF8E1" stroke="#E8D7BF" stroke-width="10"/>
<path d="M696.138 743.73L723.25 660.196L750.362 743.73H696.138Z" fill="#FFF8E1" stroke="#E8D7BF" stroke-width="10"/>
<rect x="-5" y="5" width="18.6827" height="19.3243" transform="matrix(-1 0 0 1 726.837 741.748)" fill="#FFF8E1" stroke="#E8D7BF" stroke-width="10"/>
<path d="M774.638 746.523L801.75 662.989L828.862 746.523H774.638Z" fill="#FFF8E1" stroke="#E8D7BF" stroke-width="10"/>
<rect x="-5" y="5" width="18.6827" height="19.3243" transform="matrix(-1 0 0 1 805.337 744.541)" fill="#FFF8E1" stroke="#E8D7BF" stroke-width="10"/>
<path d="M735.388 759.09L762.5 675.557L789.612 759.09H735.388Z" fill="#FFF8E1" stroke="#E8D7BF" stroke-width="10"/>
<rect x="-5" y="5" width="18.6827" height="19.3243" transform="matrix(-1 0 0 1 766.087 757.108)" fill="#FFF8E1" stroke="#E8D7BF" stroke-width="10"/>
<path d="M696.138 743.73L723.25 660.196L750.362 743.73H696.138Z" fill="#FFF8E1" stroke="#E8D7BF" stroke-width="10"/>
<rect x="-5" y="5" width="18.6827" height="19.3243" transform="matrix(-1 0 0 1 726.837 741.748)" fill="#FFF8E1" stroke="#E8D7BF" stroke-width="10"/>
<path d="M774.638 746.523L801.75 662.989L828.862 746.523H774.638Z" fill="#FFF8E1" stroke="#E8D7BF" stroke-width="10"/>
<rect x="-5" y="5" width="18.6827" height="19.3243" transform="matrix(-1 0 0 1 805.337 744.541)" fill="#FFF8E1" stroke="#E8D7BF" stroke-width="10"/>
<path d="M735.388 759.09L762.5 675.557L789.612 759.09H735.388Z" fill="#FFF8E1" stroke="#E8D7BF" stroke-width="10"/>
<rect x="-5" y="5" width="18.6827" height="19.3243" transform="matrix(-1 0 0 1 766.087 757.108)" fill="#FFF8E1" stroke="#E8D7BF" stroke-width="10"/>
<path d="M788.138 800.73L815.25 717.196L842.362 800.73H788.138Z" fill="#FFF8E1" stroke="#E8D7BF" stroke-width="10"/>
<rect x="-5" y="5" width="18.6827" height="19.3243" transform="matrix(-1 0 0 1 818.837 798.748)" fill="#FFF8E1" stroke="#E8D7BF" stroke-width="10"/>
<path d="M866.638 803.523L893.75 719.989L920.862 803.523H866.638Z" fill="#FFF8E1" stroke="#E8D7BF" stroke-width="10"/>
<rect x="-5" y="5" width="18.6827" height="19.3243" transform="matrix(-1 0 0 1 897.337 801.541)" fill="#FFF8E1" stroke="#E8D7BF" stroke-width="10"/>
<path d="M827.388 816.09L854.5 732.557L881.612 816.09H827.388Z" fill="#FFF8E1" stroke="#E8D7BF" stroke-width="10"/>
<rect x="-5" y="5" width="18.6827" height="19.3243" transform="matrix(-1 0 0 1 858.087 814.108)" fill="#FFF8E1" stroke="#E8D7BF" stroke-width="10"/>
<path d="M983 774.586C1023 760.586 1019.5 735.086 1037 733.086C1054.5 731.086 1050.5 764.586 1082.5 774.586" stroke="#E8D7BF" stroke-width="10" stroke-linecap="round"/>
<path d="M1046.5 795.172C1086.5 781.172 1083 755.672 1100.5 753.672C1118 751.672 1114 785.172 1146 795.172" stroke="#E8D7BF" stroke-width="10" stroke-linecap="round"/>
<path d="M1096.5 835.172C1136.5 821.172 1133 795.672 1150.5 793.672C1168 791.672 1164 825.172 1196 835.172" stroke="#E8D7BF" stroke-width="10" stroke-linecap="round"/>
<path d="M1122.5 781.586C1152.25 772.16 1149.65 754.99 1162.66 753.644C1175.68 752.297 1172.7 774.853 1196.5 781.586" stroke="#E8D7BF" stroke-width="10" stroke-linecap="round"/>
<path d="M982 856C1018.18 841.861 1015.02 816.107 1030.84 814.087C1046.67 812.067 1043.06 845.9 1072 856" stroke="#E8D7BF" stroke-width="10" stroke-linecap="round"/>
<path d="M1039 876C1075.18 862.197 1072.02 837.056 1087.84 835.085C1103.67 833.113 1100.06 866.141 1129 876" stroke="#E8D7BF" stroke-width="10" stroke-linecap="round"/>
<path d="M1063 754C1099.18 740.197 1096.02 715.056 1111.84 713.085C1127.67 711.113 1124.06 744.141 1153 754" stroke="#E8D7BF" stroke-width="10" stroke-linecap="round"/>
<path d="M1085 916C1121.18 902.197 1118.02 877.056 1133.84 875.085C1149.67 873.113 1146.06 906.141 1175 916" stroke="#E8D7BF" stroke-width="10" stroke-linecap="round"/>
<path d="M1108 863C1134.93 853.574 1132.58 836.404 1144.36 835.058C1156.15 833.711 1153.45 856.267 1175 863" stroke="#E8D7BF" stroke-width="10" stroke-linecap="round"/>
<path d="M7 0C283.437 169.582 248.665 336.688 264.892 447.473C281.119 558.258 339.652 797.158 818.346 880.711C1201.3 947.553 1243.34 1041.42 1216.48 1080" stroke="#E8D7BF" stroke-width="10" stroke-linecap="round"/>
</g>
<defs>
<filter id="filter0_f_112_2" x="-0.000732422" y="-7.00073" width="1230" height="1094" filterUnits="userSpaceOnUse" color-interpolation-filters="sRGB">
<feFlood flood-opacity="0" result="BackgroundImageFix"/>
<feBlend mode="normal" in="SourceGraphic" in2="BackgroundImageFix" result="shape"/>
<feGaussianBlur stdDeviation="1" result="effect1_foregroundBlur_112_2"/>
</filter>
<filter id="filter1_f_112_2" x="-0.000732422" y="-7.00073" width="1230" height="1094" filterUnits="userSpaceOnUse" color-interpolation-filters="sRGB">
<feFlood flood-opacity="0" result="BackgroundImageFix"/>
<feBlend mode="normal" in="SourceGraphic" in2="BackgroundImageFix" result="shape"/>
<feGaussianBlur stdDeviation="1" result="effect1_foregroundBlur_112_2"/>
</filter>
</defs>
</svg>
