<svg width="1920" height="325" viewBox="0 0 1920 325" fill="none" xmlns="http://www.w3.org/2000/svg">
<path d="M0 315C349.665 180.5 417.199 237 580.671 261C744.142 285 924.024 156.5 1049.63 140C1175.23 123.5 1430.91 283.927 1579.8 204.5C1705.4 137.5 1770.41 107.5 1920 169.5V0H0V315Z" fill="#BF5676"/>
<path d="M0 315C349.665 180.5 417.199 237 580.671 261C744.142 285 924.024 156.5 1049.63 140C1175.23 123.5 1430.91 283.927 1579.8 204.5C1705.4 137.5 1770.41 107.5 1920 169.5V0H0V315Z" stroke="#00070d" stroke-width="10" stroke-dasharray="20 20"/>
</svg>
