<svg width="128" height="128" viewBox="0 0 128 128" fill="none" xmlns="http://www.w3.org/2000/svg">
<circle cx="64" cy="64" r="64" fill="#FFF8E1"/>
<path d="M106.68 55.84L97.656 64.096L96.12 63.808C95.416 61.056 94.328 58.496 92.856 56.128C91.448 53.696 89.56 51.744 87.192 50.272C84.824 48.8 81.848 48.064 78.264 48.064C74.168 48.064 70.744 49.024 67.992 50.944C65.24 52.8 63.064 55.232 61.464 58.24C59.864 61.248 58.712 64.448 58.008 67.84C57.304 71.232 56.952 74.432 56.952 77.44C56.952 80.832 57.4 84.32 58.296 87.904C59.256 91.424 60.728 94.72 62.712 97.792C64.696 100.8 67.288 103.232 70.488 105.088C73.688 106.944 77.528 107.872 82.008 107.872C85.912 107.872 89.688 107.264 93.336 106.048C97.048 104.832 100.568 103.424 103.896 101.824L105.912 104.224C101.88 107.04 97.496 109.344 92.76 111.136C88.088 112.864 83.192 113.728 78.072 113.728C71.48 113.728 65.912 112.8 61.368 110.944C56.888 109.088 53.272 106.56 50.52 103.36C47.832 100.16 45.88 96.576 44.664 92.608C43.448 88.576 42.84 84.448 42.84 80.224C42.84 75.488 43.576 70.816 45.048 66.208C46.52 61.6 49.144 57.568 52.92 54.112C56.632 50.72 60.888 48.16 65.688 46.432C70.552 44.64 75.608 43.744 80.856 43.744C86.936 43.744 92.056 44.672 96.216 46.528C100.376 48.32 103.864 51.424 106.68 55.84Z" fill="#C08799"/>
<path d="M79.68 26.84L70.656 35.096L69.12 34.808C68.416 32.056 67.328 29.496 65.856 27.128C64.448 24.696 62.56 22.744 60.192 21.272C57.824 19.8 54.848 19.064 51.264 19.064C47.168 19.064 43.744 20.024 40.992 21.944C38.24 23.8 36.064 26.232 34.464 29.24C32.864 32.248 31.712 35.448 31.008 38.84C30.304 42.232 29.952 45.432 29.952 48.44C29.952 51.832 30.4 55.32 31.296 58.904C32.256 62.424 33.728 65.72 35.712 68.792C37.696 71.8 40.288 74.232 43.488 76.088C46.688 77.944 50.528 78.872 55.008 78.872C58.912 78.872 62.688 78.264 66.336 77.048C70.048 75.832 73.568 74.424 76.896 72.824L78.912 75.224C74.88 78.04 70.496 80.344 65.76 82.136C61.088 83.864 56.192 84.728 51.072 84.728C44.48 84.728 38.912 83.8 34.368 81.944C29.888 80.088 26.272 77.56 23.52 74.36C20.832 71.16 18.88 67.576 17.664 63.608C16.448 59.576 15.84 55.448 15.84 51.224C15.84 46.488 16.576 41.816 18.048 37.208C19.52 32.6 22.144 28.568 25.92 25.112C29.632 21.72 33.888 19.16 38.688 17.432C43.552 15.64 48.608 14.744 53.856 14.744C59.936 14.744 65.056 15.672 69.216 17.528C73.376 19.32 76.864 22.424 79.68 26.84Z" fill="#BF5676"/>
</svg>
