<svg width="228" height="451" viewBox="0 0 228 451" fill="none" xmlns="http://www.w3.org/2000/svg">
<path d="M161.998 131C299.443 195.165 114.017 231.566 76.032 273.725C38.0471 315.884 84.0289 339.123 132.51 376.758C171.294 406.866 177.325 438.798 175.493 451" stroke="#432814" stroke-width="10" stroke-dasharray="20 20"/>
<circle cx="174.5" cy="450.5" r="35" fill="#A77282" stroke="#432814" stroke-width="5"/>
<path d="M130.297 70.9501L208.685 41.7775L219.021 69.5515L140.633 98.7241L135.947 100.468L137.691 105.154L166.639 182.939L130.883 196.246L101.934 118.461L100.19 113.775L95.5043 115.519L18.2473 144.271L7.91102 116.497L85.1679 87.7452L89.8539 86.0013L88.11 81.3153L65.7915 21.3448L101.549 8.03758L123.867 68.008L125.611 72.694L130.297 70.9501Z" fill="#A77282" stroke="#432814" stroke-width="10"/>
</svg>
