<svg width="56" height="57" viewBox="0 0 56 57" fill="none" xmlns="http://www.w3.org/2000/svg">
<path d="M10.6999 33.3C10.0999 33.3 9.34988 33.3 8.44988 33.3C7.54988 33.2 6.54988 32.95 5.44988 32.55C3.94988 32.55 2.94988 32.4 2.44988 32.1C1.94988 31.7 1.49988 31.15 1.09988 30.45C-0.000117004 28.95 -0.100117 27.95 0.799882 27.45C1.69988 26.85 3.99988 26.35 7.69988 25.95C9.39988 25.55 11.8999 25.25 15.1999 25.05C18.5999 24.75 22.2499 24.55 26.1499 24.45C30.0499 24.25 33.7499 24.1 37.2499 24C40.7499 23.9 43.4999 23.85 45.4999 23.85C48.0999 23.85 49.8499 23.95 50.7499 24.15C51.6499 24.35 52.6499 25 53.7499 26.1C55.2499 27.6 55.7999 29.05 55.3999 30.45C54.9999 31.75 53.6499 32.2 51.3499 31.8C50.8499 31.8 50.0499 31.85 48.9499 31.95C47.9499 32.05 46.7999 32.15 45.4999 32.25C44.2999 32.35 43.0999 32.45 41.8999 32.55C41.2999 32.55 39.6499 32.6 36.9499 32.7C34.2499 32.8 31.0999 32.9 27.4999 33C23.9999 33.1 20.6499 33.2 17.4499 33.3C14.3499 33.3 12.0999 33.3 10.6999 33.3ZM29.5999 55.35C28.0999 56.45 27.0499 56.55 26.4499 55.65C25.9499 54.75 25.4999 52.45 25.0999 48.75C24.6999 47.05 24.3499 44.55 24.0499 41.25C23.8499 37.85 23.6499 34.2 23.4499 30.3C23.3499 26.4 23.2499 22.7 23.1499 19.2C23.0499 15.7 22.9999 12.95 22.9999 10.95C22.9999 8.35002 23.0999 6.60002 23.2999 5.70002C23.5999 4.80002 24.2499 3.80002 25.2499 2.70002C26.7499 1.20002 28.1499 0.650022 29.4499 1.05002C30.8499 1.45002 31.3499 2.80002 30.9499 5.10002C31.0499 5.60002 31.0999 6.40002 31.0999 7.50002C31.1999 8.50002 31.2999 9.65002 31.3999 10.95C31.4999 12.15 31.5999 13.35 31.6999 14.55C31.6999 15.15 31.7499 16.8 31.8499 19.5C31.9499 22.2 32.0499 25.35 32.1499 28.95C32.2499 32.45 32.2999 35.8 32.2999 39C32.3999 42.1 32.4499 44.35 32.4499 45.75C32.4499 46.35 32.3999 47.1 32.2999 48C32.2999 48.9 32.0999 49.9 31.6999 51C31.6999 52.5 31.4999 53.5 31.0999 54C30.7999 54.5 30.2999 54.95 29.5999 55.35Z" fill="white"/>
</svg>
